<svg xmlns="http://www.w3.org/2000/svg"  viewBox="0 0 64 64" width="64px" height="64px" fill="white" stroke="#BBDEFB"><path d="M 51.300781 0 L 23.027344 28.160156 L 31.988281 28.160156 L 20.46875 42.240234 L 26.867188 42.240234 L 12.900391 64 L 40.949219 35.839844 L 33.269531 35.839844 L 44.789062 21.759766 L 37.109375 21.759766 L 51.300781 0 z M 30 4 C 14.56 4 2 16.56 2 32 C 2 41.48 6.7407031 49.879687 13.970703 54.929688 L 17.140625 49.990234 C 12.150625 45.590234 9 39.16 9 32 C 9 18.77 19.77 8 33 8 C 34.44 8 35.850703 8.1308594 37.220703 8.3808594 L 40.570312 5.0507812 C 38.160312 4.3607812 35.62 4 33 4 L 30 4 z M 49.800781 9.6191406 L 47.609375 12.980469 C 53.319375 17.370469 57 24.26 57 32 C 57 45.23 46.23 56 33 56 C 31.01 56 29.070703 55.759062 27.220703 55.289062 L 23.330078 59.189453 C 25.470078 59.719453 27.7 60 30 60 L 33 60 C 48.44 60 61 47.44 61 32 C 61 22.86 56.600781 14.729141 49.800781 9.6191406 z"/></svg>
