<svg xmlns="http://www.w3.org/2000/svg"  viewBox="0 0 100 100" width="100px" height="100px" baseProfile="basic"><path fill="#c7ede6" d="M87.215,56.71C88.35,54.555,89,52.105,89,49.5c0-6.621-4.159-12.257-10.001-14.478	C78.999,35.015,79,35.008,79,35c0-11.598-9.402-21-21-21c-9.784,0-17.981,6.701-20.313,15.757C36.211,29.272,34.638,29,33,29	c-7.692,0-14.023,5.793-14.89,13.252C12.906,43.353,9,47.969,9,53.5C9,59.851,14.149,65,20.5,65c0.177,0,0.352-0.012,0.526-0.022	C21.022,65.153,21,65.324,21,65.5C21,76.822,30.178,86,41.5,86c6.437,0,12.175-2.972,15.934-7.614C59.612,80.611,62.64,82,66,82	c4.65,0,8.674-2.65,10.666-6.518C77.718,75.817,78.837,76,80,76c6.075,0,11-4.925,11-11C91,61.689,89.53,58.727,87.215,56.71z"/><path fill="#fff" d="M83.508,68.016h-10c-0.276,0-0.5-0.224-0.5-0.5s0.224-0.5,0.5-0.5h10c0.276,0,0.5,0.224,0.5,0.5 S83.784,68.016,83.508,68.016z"/><path fill="#fff" d="M87.508,68.016h-2c-0.276,0-0.5-0.224-0.5-0.5s0.224-0.5,0.5-0.5h2c0.276,0,0.5,0.224,0.5,0.5 S87.784,68.016,87.508,68.016z"/><path fill="#fff" d="M92.508,70.016h-10c-0.276,0-0.5-0.224-0.5-0.5s0.224-0.5,0.5-0.5h10c0.276,0,0.5,0.224,0.5,0.5 S92.785,70.016,92.508,70.016z"/><path fill="#fff" d="M80.508,70.016h-1c-0.276,0-0.5-0.224-0.5-0.5s0.224-0.5,0.5-0.5h1c0.276,0,0.5,0.224,0.5,0.5 S80.784,70.016,80.508,70.016z"/><path fill="#fff" d="M77.383,70.016h-1.875c-0.276,0-0.5-0.224-0.5-0.5s0.224-0.5,0.5-0.5h1.875 c0.276,0,0.5,0.224,0.5,0.5S77.659,70.016,77.383,70.016z"/><path fill="#fff" d="M86.508,66.016h-5c-0.276,0-0.5-0.224-0.5-0.5s0.224-0.5,0.5-0.5h5c0.276,0,0.5,0.224,0.5,0.5 S86.785,66.016,86.508,66.016z"/><path fill="#fff" d="M83.508,72.016h-2c-0.276,0-0.5-0.224-0.5-0.5s0.224-0.5,0.5-0.5h2c0.276,0,0.5,0.224,0.5,0.5 S83.784,72.016,83.508,72.016z"/><path fill="#fff" d="M16.999,49.016H7.094c-0.276,0-0.5-0.224-0.5-0.5s0.224-0.5,0.5-0.5h9.905 c0.276,0,0.5,0.224,0.5,0.5S17.276,49.016,16.999,49.016z"/><path fill="#fff" d="M20.094,49.016h-1c-0.276,0-0.5-0.224-0.5-0.5s0.224-0.5,0.5-0.5h1c0.276,0,0.5,0.224,0.5,0.5 S20.371,49.016,20.094,49.016z"/><path fill="#fff" d="M25.085,51.016h-8.991c-0.276,0-0.5-0.224-0.5-0.5s0.224-0.5,0.5-0.5h8.991 c0.276,0,0.5,0.224,0.5,0.5S25.361,51.016,25.085,51.016z"/><path fill="#fff" d="M14.094,51.016h-1c-0.276,0-0.5-0.224-0.5-0.5s0.224-0.5,0.5-0.5h1c0.276,0,0.5,0.224,0.5,0.5 S14.371,51.016,14.094,51.016z"/><path fill="#fff" d="M11.094,51.016h-2c-0.276,0-0.5-0.224-0.5-0.5s0.224-0.5,0.5-0.5h2c0.276,0,0.5,0.224,0.5,0.5 S11.371,51.016,11.094,51.016z"/><path fill="#fff" d="M17.094,53.016h-2c-0.276,0-0.5-0.224-0.5-0.5s0.224-0.5,0.5-0.5h2c0.276,0,0.5,0.224,0.5,0.5 S17.37,53.016,17.094,53.016z"/><path fill="#fff" d="M20.094,44.016c-0.177,0-0.823,0-1,0c-0.276,0-0.5,0.224-0.5,0.5s0.224,0.5,0.5,0.5 c0.177,0,0.823,0,1,0c0.276,0,0.5-0.224,0.5-0.5S20.37,44.016,20.094,44.016z"/><path fill="#fff" d="M20.094,46.016c-0.177,0-4.823,0-5,0c-0.276,0-0.5,0.224-0.5,0.5s0.224,0.5,0.5,0.5 c0.177,0,4.823,0,5,0c0.276,0,0.5-0.224,0.5-0.5S20.37,46.016,20.094,46.016z"/><path fill="#fff" d="M25.094,48.016c-0.177,0-2.823,0-3,0c-0.276,0-0.5,0.224-0.5,0.5s0.224,0.5,0.5,0.5 c0.177,0,2.823,0,3,0c0.276,0,0.5-0.224,0.5-0.5S25.37,48.016,25.094,48.016z"/><path fill="#fdfcef" d="M33.938,86.533v0.5h-3v-0.5c0,0-4.242,0-5.5,0c-2.485,0-4.5-2.015-4.5-4.5 c0-2.333,1.782-4.229,4.055-4.455c-0.022-0.181-0.055-0.358-0.055-0.545c0-2.485,2.015-4.5,4.5-4.5 c1.438,0,2.703,0.686,3.527,1.736c0.14-2.636,2.302-4.736,4.973-4.736c2.761,0,5,2.239,5,5c0,0.446-0.077,0.87-0.187,1.282 c0.642-0.777,1.6-1.282,2.687-1.282c1.781,0,3.234,1.335,3.455,3.055c0.181-0.022,0.358-0.055,0.545-0.055 c2.485,0,4.5,2.015,4.5,4.5s-2.015,4.5-4.5,4.5s-9.5,0-9.5,0H33.938z"/><path fill="#472b29" d="M37.938,69.033c3.033,0,5.5,2.467,5.5,5.5c0,0.016,0,0.031,0,0.047c0.602-0.354,1.29-0.547,2-0.547 c1.831,0,3.411,1.261,3.858,3.005c0.047-0.003,0.094-0.005,0.142-0.005c2.757,0,5,2.243,5,5s-2.243,5-5,5h-15.5 c-0.276,0-0.5-0.224-0.5-0.5s0.224-0.5,0.5-0.5h15.5c2.206,0,4-1.794,4-4s-1.794-4-4-4c-0.117,0-0.23,0.017-0.343,0.032 l-0.141,0.019c-0.021,0.003-0.041,0.004-0.062,0.004c-0.246,0-0.462-0.185-0.495-0.437c-0.191-1.493-1.463-2.618-2.959-2.618 c-0.885,0-1.723,0.401-2.301,1.1c-0.098,0.118-0.241,0.182-0.386,0.182c-0.078,0-0.156-0.018-0.228-0.056 c-0.209-0.107-0.314-0.346-0.254-0.573c0.116-0.436,0.17-0.802,0.17-1.153c0-2.481-2.019-4.5-4.5-4.5 c-2.381,0-4.347,1.872-4.474,4.263c-0.011,0.208-0.15,0.387-0.349,0.45c-0.05,0.016-0.101,0.024-0.152,0.024 c-0.15,0-0.296-0.069-0.392-0.192c-0.771-0.981-1.913-1.544-3.133-1.544c-2.206,0-4,1.794-4,4c0,0.117,0.017,0.23,0.032,0.343 l0.019,0.141c0.016,0.134-0.022,0.268-0.106,0.373s-0.207,0.172-0.34,0.185c-2.055,0.205-3.604,1.906-3.604,3.958 c0,2.206,1.794,4,4,4h5.5c0.276,0,0.5,0.224,0.5,0.5s-0.224,0.5-0.5,0.5h-5.5c-2.757,0-5-2.243-5-5 c0-2.397,1.689-4.413,4.003-4.877c-0.002-0.041-0.003-0.082-0.003-0.123c0-2.757,2.243-5,5-5c1.176,0,2.293,0.416,3.183,1.164 C33.219,70.793,35.383,69.033,37.938,69.033L37.938,69.033z"/><path fill="#472b29" d="M39.438,76.033c1.403,0,2.609,0.999,2.913,2.341c0.367-0.222,0.786-0.341,1.212-0.341 c1.202,0,2.198,0.897,2.353,2.068c0.203-0.045,0.396-0.068,0.585-0.068c1.529,0,2.811,1.2,2.918,2.732 c0.009,0.138-0.094,0.257-0.232,0.267c-0.006,0-0.012,0-0.018,0c-0.13,0-0.24-0.101-0.249-0.232 c-0.089-1.271-1.151-2.268-2.419-2.268c-0.229,0-0.47,0.042-0.738,0.127c-0.022,0.007-0.045,0.01-0.067,0.01 c-0.055,0-0.11-0.02-0.156-0.054c-0.064-0.047-0.102-0.129-0.102-0.209c0-1.034-0.841-1.875-1.875-1.875 c-0.447,0-0.885,0.168-1.231,0.473c-0.047,0.041-0.106,0.063-0.165,0.063c-0.032,0-0.063-0.006-0.093-0.019 c-0.088-0.035-0.148-0.117-0.155-0.212c-0.102-1.292-1.191-2.305-2.479-2.305c-0.208,0-0.425,0.034-0.682,0.107 c-0.023,0.007-0.047,0.01-0.07,0.01c-0.109,0-0.207-0.073-0.239-0.182c-0.038-0.133,0.039-0.271,0.172-0.309 C38.921,76.073,39.182,76.033,39.438,76.033L39.438,76.033z"/><path fill="#472b29" d="M25.555,77.533c1.326,0,2.508,0.897,2.874,2.182c0.038,0.133-0.039,0.271-0.172,0.309 c-0.023,0.007-0.046,0.01-0.068,0.01c-0.109,0-0.209-0.072-0.24-0.182c-0.305-1.071-1.289-1.818-2.393-1.818 c-0.117,0-0.23,0.014-0.342,0.029c-0.012,0.002-0.023,0.003-0.035,0.003c-0.121,0-0.229-0.092-0.246-0.217 c-0.019-0.137,0.077-0.263,0.214-0.281C25.279,77.549,25.415,77.533,25.555,77.533L25.555,77.533z"/><path fill="#fdfcef" d="M81.826,33.547c0,0,1.567,0,3.5,0s3.5-1.567,3.5-3.5c0-1.781-1.335-3.234-3.055-3.455 c0.028-0.179,0.055-0.358,0.055-0.545c0-1.933-1.567-3.5-3.5-3.5c-1.032,0-1.95,0.455-2.59,1.165 c-0.384-1.808-1.987-3.165-3.91-3.165c-2.209,0-4,1.791-4,4c0,0.191,0.03,0.374,0.056,0.558c-0.428-0.344-0.965-0.558-1.556-0.558 c-1.228,0-2.245,0.887-2.455,2.055c-0.179-0.028-0.358-0.055-0.545-0.055c-1.933,0-3.5,1.567-3.5,3.5s1.567,3.5,3.5,3.5 s7.5,0,7.5,0v0.5h7V33.547z"/><path fill="#472b29" d="M83.576,29.047c-0.138,0-0.25-0.112-0.25-0.25c0-1.223,0.995-2.218,2.218-2.218 c0.034,0.009,0.737-0.001,1.244,0.136c0.133,0.036,0.212,0.173,0.176,0.306c-0.036,0.134-0.173,0.213-0.306,0.176 c-0.444-0.12-1.1-0.12-1.113-0.118c-0.948,0-1.719,0.771-1.719,1.718C83.826,28.935,83.715,29.047,83.576,29.047z"/><circle cx="76.826" cy="33.547" r=".5" fill="#472b29"/><path fill="#472b29" d="M85.326,34.047h-3.5c-0.276,0-0.5-0.224-0.5-0.5s0.224-0.5,0.5-0.5h3.5c1.654,0,3-1.346,3-3 c0-1.496-1.125-2.768-2.618-2.959c-0.134-0.018-0.255-0.088-0.336-0.196s-0.115-0.244-0.094-0.377 c0.024-0.153,0.049-0.308,0.049-0.468c0-1.654-1.346-3-3-3c-0.85,0-1.638,0.355-2.219,1c-0.125,0.139-0.321,0.198-0.5,0.148 c-0.182-0.049-0.321-0.195-0.36-0.379c-0.341-1.604-1.779-2.769-3.42-2.769c-1.93,0-3.5,1.57-3.5,3.5 c0,0.143,0.021,0.28,0.041,0.418c0.029,0.203-0.063,0.438-0.242,0.54c-0.179,0.102-0.396,0.118-0.556-0.01 c-0.365-0.293-0.794-0.448-1.243-0.448c-0.966,0-1.792,0.691-1.963,1.644c-0.048,0.267-0.296,0.446-0.569,0.405 c-0.153-0.024-0.308-0.049-0.468-0.049c-1.654,0-3,1.346-3,3s1.346,3,3,3h7.5c0.276,0,0.5,0.224,0.5,0.5s-0.224,0.5-0.5,0.5h-7.5 c-2.206,0-4-1.794-4-4s1.794-4,4-4c0.059,0,0.116,0.002,0.174,0.006c0.414-1.186,1.537-2.006,2.826-2.006 c0.349,0,0.689,0.061,1.011,0.18c0.165-2.333,2.115-4.18,4.489-4.18c1.831,0,3.466,1.127,4.153,2.774 c0.68-0.499,1.502-0.774,2.347-0.774c2.206,0,4,1.794,4,4c0,0.048-0.001,0.095-0.004,0.142c1.743,0.448,3.004,2.027,3.004,3.858 C89.326,32.253,87.532,34.047,85.326,34.047z"/><path fill="#472b29" d="M79.826,33.047c-0.159,0-0.841,0-1,0c-0.276,0-0.5,0.224-0.5,0.5s0.224,0.5,0.5,0.5 c0.159,0,0.841,0,1,0c0.276,0,0.5-0.224,0.5-0.5S80.102,33.047,79.826,33.047z"/><path fill="#fff" d="M71.118,43.442c1.224-9.513-1.071-12.251-2.191-12.495c-3.636-0.792-8.861,2.907-10.951,4.478 c-1.696-0.362-3.457-0.576-5.271-0.576c-3.352,0-6.481,0.676-9.262,1.845c-1.732-0.884-5.748-2.684-8.843-2.133 c-0.685,0.122-4.178,3.748-0.985,10.811c-1.218,2.294-1.912,4.833-1.912,7.508c0,9.878,8.256,15.143,21.582,15.146 c12.747,0.002,21.148-5.267,21.148-15.146C74.432,49.428,73.199,46.198,71.118,43.442z"/><path fill="#472b29" d="M53.295,68.726c-0.004,0-0.007,0-0.011,0c-14.16-0.002-22.282-5.777-22.282-15.846 c0-2.6,0.618-5.132,1.836-7.532c-2.079-4.821-1.104-8.001-0.323-9.482c0.572-1.085,1.36-1.887,1.961-1.994 c3.077-0.542,6.847,0.986,8.996,2.054c4.414-1.785,9.253-2.276,14.339-1.249c4.749-3.523,8.537-5.006,11.267-4.412 c1.59,0.347,3.941,3.477,2.771,12.986c2.149,2.938,3.284,6.262,3.284,9.63c0,4.999-2.108,9.099-6.097,11.854 C65.256,67.345,59.813,68.726,53.295,68.726z M35.837,35.157c-0.383,0-0.757,0.028-1.116,0.093 c-0.443,0.22-3.341,3.479-0.469,9.834l0.142,0.313L34.232,45.7c-1.215,2.286-1.83,4.702-1.83,7.18 c0,9.179,7.611,14.443,20.882,14.445c0.004,0,0.007,0,0.011,0c6.232,0,11.4-1.294,14.945-3.743 c3.644-2.518,5.491-6.118,5.491-10.702c0-3.149-1.097-6.268-3.172-9.017l-0.172-0.229l0.036-0.283 c1.182-9.176-0.997-11.579-1.646-11.721c-2.294-0.505-5.981,1.047-10.381,4.354l-0.255,0.191l-0.313-0.066 c-5.026-1.071-9.795-0.585-14.116,1.23l-0.3,0.126l-0.29-0.148C41.761,36.621,38.569,35.157,35.837,35.157z"/><path fill="#472b29" d="M35.395,47.757c-0.034,0-0.068-0.007-0.102-0.021c-0.126-0.056-0.183-0.203-0.127-0.33	c0.143-0.322,0.299-0.644,0.468-0.961c0.064-0.123,0.219-0.167,0.338-0.104c0.122,0.064,0.168,0.216,0.104,0.338	c-0.163,0.308-0.313,0.617-0.452,0.93C35.582,47.701,35.49,47.757,35.395,47.757z"/><path fill="#472b29" d="M34.238,53.13c-0.138,0-0.25-0.112-0.25-0.25c0-1.394,0.222-2.78,0.659-4.122	c0.042-0.131,0.185-0.204,0.314-0.16c0.132,0.042,0.203,0.184,0.16,0.314c-0.421,1.292-0.634,2.627-0.634,3.968	C34.488,53.018,34.376,53.13,34.238,53.13z"/><polygon fill="#472b29" points="68.841,45.161 68.14,44.232 68.288,43.078 68.917,43.158 68.802,44.057 69.347,44.778"/><path fill="#472b29" d="M58.576,38.464c-0.096,0-0.191-0.044-0.254-0.127c-0.104-0.14-0.076-0.339,0.063-0.444l0.923-0.693	c0.139-0.102,0.339-0.076,0.444,0.063c0.104,0.14,0.076,0.339-0.063,0.444L58.767,38.4C58.71,38.442,58.643,38.464,58.576,38.464z"/><path fill="#472b29" d="M44.425,39.282c-0.098,0-0.19-0.058-0.23-0.153c-0.054-0.127,0.006-0.273,0.134-0.327	c0.399-0.168,0.804-0.323,1.211-0.466c1.585-0.554,3.247-0.921,4.939-1.091c0.153-0.016,0.261,0.087,0.274,0.224	c0.014,0.138-0.087,0.261-0.224,0.274c-1.654,0.165-3.277,0.523-4.825,1.065c-0.398,0.139-0.793,0.29-1.183,0.454	C44.49,39.276,44.457,39.282,44.425,39.282z"/><path fill="#472b29" d="M27.5,57.075c-0.285,0-0.545-0.195-0.615-0.485c-0.083-0.341,0.126-0.684,0.467-0.766	c4.813-1.168,8.014-1.029,8.146-1.024c0.35,0.017,0.619,0.313,0.603,0.663s-0.267,0.615-0.663,0.604	c-0.031-0.007-3.166-0.132-7.787,0.989C27.601,57.069,27.55,57.075,27.5,57.075z"/><path fill="#472b29" d="M29.965,61.999c-0.209,0-0.413-0.104-0.534-0.292c-0.188-0.295-0.104-0.687,0.19-0.875	c0.087-0.057,2.178-1.38,6.166-2.118c0.348-0.07,0.676,0.163,0.739,0.508c0.063,0.344-0.164,0.675-0.509,0.739	c-3.719,0.688-5.692,1.926-5.712,1.938C30.2,61.967,30.082,61.999,29.965,61.999z"/><path fill="#472b29" d="M32.137,67.51c-0.153,0-0.308-0.056-0.43-0.168c-0.256-0.236-0.273-0.636-0.038-0.894	c0.068-0.074,1.729-1.853,6.702-4.34c0.315-0.155,0.694-0.028,0.851,0.284s0.029,0.693-0.284,0.851	c-4.721,2.36-6.319,4.047-6.335,4.064C32.478,67.441,32.308,67.51,32.137,67.51z"/><path fill="#f94b6c" d="M62.699,36.893c0,0-1.159-5.649-5.649-6.228c0,0-2.752-0.435-4.925,5.359	c0,0-1.738,5.359,1.738,6.953c0,0,2.318,0.869,6.663-1.304L62.699,36.893z"/><path fill="#472b29" d="M55.293,34.097c-0.052,0-0.104-0.016-0.148-0.049c-0.111-0.082-0.135-0.239-0.053-0.35	c0.681-0.92,1.354-1.316,1.759-1.381c0.135-0.021,0.265,0.072,0.286,0.208s-0.071,0.265-0.208,0.286	c-0.235,0.037-0.803,0.329-1.435,1.184C55.445,34.062,55.369,34.097,55.293,34.097z"/><path fill="#472b29" d="M55.212,41.496c-0.357,0-0.602-0.038-0.716-0.061l-0.073-0.026c-1.899-1.06-0.746-4.813-0.733-4.85	c0.205-0.616,0.436-1.181,0.685-1.677c0.063-0.122,0.214-0.171,0.336-0.111c0.123,0.063,0.173,0.213,0.111,0.336	c-0.238,0.475-0.46,1.017-0.657,1.61c-0.221,0.659-0.821,3.462,0.469,4.234c0.108,0.02,0.302,0.044,0.579,0.044	c0.138,0,0.25,0.112,0.25,0.25S55.35,41.496,55.212,41.496z"/><path fill="#f94b6c" d="M65.451,38.342c0,0,4.78-2.318,6.953-0.435c2.173,1.883,1.593,4.78,0,7.097	c-1.07,1.556-2.607,2.752-4.345,2.607c-1.738-0.145-3.476-1.304-4.49-4.056L65.451,38.342z"/><path fill="#472b29" d="M70.836,44.178c-0.049,0-0.099-0.015-0.142-0.044c-0.114-0.078-0.143-0.233-0.064-0.348	c0.662-0.964,1.306-2.822,0.789-3.804c-0.233-0.444-0.683-0.66-1.372-0.66c-0.138,0-0.25-0.112-0.25-0.25s0.112-0.25,0.25-0.25	c1.097,0,1.592,0.504,1.814,0.928c0.636,1.208-0.113,3.292-0.819,4.319C70.993,44.14,70.915,44.178,70.836,44.178z"/><path fill="#472b29" d="M71.067,52.238c-0.268,0-0.517-0.172-0.604-0.44c-0.107-0.333,0.075-0.69,0.409-0.798	c0.188-0.062,4.683-1.489,8.688-0.893c0.347,0.051,0.586,0.373,0.534,0.72c-0.051,0.348-0.381,0.593-0.72,0.534	c-3.724-0.548-8.071,0.831-8.114,0.846C71.197,52.228,71.132,52.238,71.067,52.238z"/><path fill="#472b29" d="M78.344,56.792c-0.035,0-0.07-0.002-0.105-0.008c-2.526-0.422-5.801-0.427-5.834-0.427	c-0.351,0-0.634-0.283-0.634-0.634s0.283-0.634,0.634-0.634c0.138,0,3.414,0.005,6.043,0.442c0.346,0.058,0.578,0.385,0.521,0.73	C78.917,56.572,78.647,56.792,78.344,56.792z"/><path fill="#472b29" d="M77.473,62.73c-0.102,0-0.205-0.024-0.301-0.076c-3.323-1.8-6.556-2.242-6.588-2.246	c-0.348-0.046-0.592-0.364-0.547-0.711c0.046-0.347,0.354-0.6,0.711-0.547c0.141,0.019,3.488,0.472,7.027,2.389	c0.309,0.167,0.423,0.552,0.256,0.859C77.916,62.61,77.698,62.73,77.473,62.73z"/><ellipse cx="43.068" cy="56.438" fill="#472b29" rx="1.905" ry="2.525"/><ellipse cx="64.173" cy="55.476" fill="#472b29" rx="1.904" ry="2.524"/><g><ellipse cx="54.044" cy="59.475" fill="#ef9922" rx="2.815" ry="2.184" transform="rotate(-2.987 54.093 59.527)"/><path fill="#472b29" d="M53.969,61.911c-1.598,0-2.917-0.99-2.985-2.276c-0.069-1.34,1.247-2.502,2.935-2.591 c1.667-0.081,3.116,0.931,3.188,2.271c0.069,1.34-1.247,2.502-2.935,2.591C54.104,61.909,54.035,61.911,53.969,61.911z M54.123,57.539c-0.06,0-0.119,0.001-0.18,0.005c-1.412,0.073-2.516,1-2.46,2.065c0.057,1.064,1.221,1.882,2.662,1.797 c1.412-0.073,2.516-1,2.46-2.065C56.552,58.321,55.455,57.539,54.123,57.539z"/></g><path fill="#472b29" d="M58.933,40.475c-1.256,0-2.277-1.021-2.277-2.277s1.021-2.278,2.277-2.278	c0.807,0,1.536,0.413,1.952,1.104l-0.428,0.258c-0.325-0.54-0.896-0.862-1.524-0.862c-0.98,0-1.777,0.798-1.777,1.778	s0.797,1.777,1.777,1.777V40.475z"/><path fill="#472b29" d="M67.117,44.091c-0.345,0-0.947-0.21-1.186-0.313l0.197-0.459c0.265,0.113,0.77,0.271,0.988,0.271	c1.483,0,1.705-1.023,1.705-1.634c0-0.901-0.765-1.635-1.705-1.635v-0.5c1.216,0,2.205,0.958,2.205,2.135	C69.322,43.273,68.478,44.091,67.117,44.091z"/><path fill="#472b29" d="M55.311,43.646c-0.954,0-1.468-0.187-1.509-0.202c-3.819-1.772-2.089-7.336-2.014-7.572	c2.268-6.13,5.282-5.718,5.414-5.701c3.727,0.487,5.283,4.255,5.778,5.852l-0.955,0.297c-0.438-1.413-1.8-4.744-4.967-5.158	c-0.036-0.018-2.383-0.211-4.325,5.037c-0.008,0.027-1.53,4.938,1.457,6.325c-0.001,0-0.001,0,0,0c0.007,0,1.723,0.567,4.888-0.724	l0.377,0.926C57.656,43.46,56.264,43.646,55.311,43.646z"/><path fill="#472b29" d="M68.334,48.124c-0.105,0-0.211-0.005-0.316-0.014c-1.865-0.155-3.449-1.337-4.46-3.326l0.891-0.453	c1.088,2.139,2.586,2.694,3.652,2.783c1.36,0.103,2.77-0.761,3.892-2.393c0.658-0.957,2.607-4.249,0.085-6.437	c-1.43-1.236-4.377-0.303-5.578,0.156l-0.357-0.934c1.7-0.651,4.817-1.515,6.59,0.021c2.503,2.17,1.686,5.431,0.085,7.759	C71.565,47.105,69.948,48.124,68.334,48.124z"/><path fill="#472b29" d="M32.86,47.64c-0.093,0-0.186-0.019-0.275-0.057c-0.355-0.152-0.521-0.564-0.368-0.919	c0.912-2.127,1.987-3.216,2.032-3.262c0.273-0.273,0.717-0.273,0.99,0c0.272,0.273,0.273,0.715,0.001,0.988	c-0.021,0.021-0.944,0.977-1.736,2.824C33.39,47.48,33.132,47.64,32.86,47.64z"/><circle cx="62.989" cy="40.514" r="4.056" fill="#f94b6c"/><path fill="#472b29" d="M62.989,45.07c-2.513,0-4.557-2.044-4.557-4.556s2.044-4.556,4.557-4.556	c2.336,0,4.283,1.75,4.529,4.07c0.018,0.159,0.026,0.32,0.026,0.485C67.545,43.026,65.501,45.07,62.989,45.07z M62.989,36.959	c-1.961,0-3.557,1.595-3.557,3.556s1.596,3.556,3.557,3.556s3.556-1.595,3.556-3.556c0-0.128-0.007-0.254-0.021-0.378	C66.332,38.324,64.813,36.959,62.989,36.959z"/></svg>