<svg xmlns="http://www.w3.org/2000/svg"  viewBox="0 0 100 100" width="100px" height="100px" baseProfile="basic"><path fill="#c7ede6" d="M87.215,56.71C88.35,54.555,89,52.105,89,49.5c0-6.621-4.159-12.257-10.001-14.478 C78.999,35.015,79,35.008,79,35c0-11.598-9.402-21-21-21c-9.784,0-17.981,6.701-20.313,15.757C36.211,29.272,34.638,29,33,29 c-7.692,0-14.023,5.793-14.89,13.252C12.906,43.353,9,47.969,9,53.5C9,59.851,14.149,65,20.5,65c0.177,0,0.352-0.012,0.526-0.022 C21.022,65.153,21,65.324,21,65.5C21,76.822,30.178,86,41.5,86c6.437,0,12.175-2.972,15.934-7.614C59.612,80.611,62.64,82,66,82 c4.65,0,8.674-2.65,10.666-6.518C77.718,75.817,78.837,76,80,76c6.075,0,11-4.925,11-11C91,61.689,89.53,58.727,87.215,56.71z"/><path fill="#fff" d="M85.405,45H75.5c-0.276,0-0.5-0.224-0.5-0.5s0.224-0.5,0.5-0.5h9.905c0.276,0,0.5,0.224,0.5,0.5 S85.682,45,85.405,45z"/><path fill="#fff" d="M88.5,45h-1c-0.276,0-0.5-0.224-0.5-0.5s0.224-0.5,0.5-0.5h1c0.276,0,0.5,0.224,0.5,0.5 S88.777,45,88.5,45z"/><path fill="#fff" d="M93.491,47H84.5c-0.276,0-0.5-0.224-0.5-0.5s0.224-0.5,0.5-0.5h8.991c0.276,0,0.5,0.224,0.5,0.5 S93.767,47,93.491,47z"/><path fill="#fff" d="M82.5,47h-1c-0.276,0-0.5-0.224-0.5-0.5s0.224-0.5,0.5-0.5h1c0.276,0,0.5,0.224,0.5,0.5 S82.777,47,82.5,47z"/><path fill="#fff" d="M79.5,47h-2c-0.276,0-0.5-0.224-0.5-0.5s0.224-0.5,0.5-0.5h2c0.276,0,0.5,0.224,0.5,0.5 S79.777,47,79.5,47z"/><path fill="#fff" d="M85.5,49h-2c-0.276,0-0.5-0.224-0.5-0.5s0.224-0.5,0.5-0.5h2c0.276,0,0.5,0.224,0.5,0.5 S85.776,49,85.5,49z"/><path fill="#fff" d="M88.5,40c-0.177,0-0.823,0-1,0c-0.276,0-0.5,0.224-0.5,0.5s0.224,0.5,0.5,0.5c0.177,0,0.823,0,1,0 c0.276,0,0.5-0.224,0.5-0.5S88.776,40,88.5,40z"/><path fill="#fff" d="M88.5,42c-0.177,0-4.823,0-5,0c-0.276,0-0.5,0.224-0.5,0.5s0.224,0.5,0.5,0.5c0.177,0,4.823,0,5,0 c0.276,0,0.5-0.224,0.5-0.5S88.776,42,88.5,42z"/><path fill="#fff" d="M93.5,44c-0.177,0-2.823,0-3,0c-0.276,0-0.5,0.224-0.5,0.5s0.224,0.5,0.5,0.5c0.177,0,2.823,0,3,0 c0.276,0,0.5-0.224,0.5-0.5S93.776,44,93.5,44z"/><g><path fill="#fff" d="M17.5,61h-10C7.224,61,7,60.776,7,60.5S7.224,60,7.5,60h10c0.276,0,0.5,0.224,0.5,0.5 S17.776,61,17.5,61z"/><path fill="#fff" d="M21.5,61h-2c-0.276,0-0.5-0.224-0.5-0.5s0.224-0.5,0.5-0.5h2c0.276,0,0.5,0.224,0.5,0.5 S21.776,61,21.5,61z"/><path fill="#fff" d="M26.5,63h-10c-0.276,0-0.5-0.224-0.5-0.5s0.224-0.5,0.5-0.5h10c0.276,0,0.5,0.224,0.5,0.5 S26.777,63,26.5,63z"/><path fill="#fff" d="M14.5,63h-1c-0.276,0-0.5-0.224-0.5-0.5s0.224-0.5,0.5-0.5h1c0.276,0,0.5,0.224,0.5,0.5 S14.776,63,14.5,63z"/><path fill="#fff" d="M11.375,63H9.5C9.224,63,9,62.776,9,62.5S9.224,62,9.5,62h1.875c0.276,0,0.5,0.224,0.5,0.5 S11.651,63,11.375,63z"/><path fill="#fff" d="M20.5,59h-5c-0.276,0-0.5-0.224-0.5-0.5s0.224-0.5,0.5-0.5h5c0.276,0,0.5,0.224,0.5,0.5 S20.777,59,20.5,59z"/><path fill="#fff" d="M17.5,65h-2c-0.276,0-0.5-0.224-0.5-0.5s0.224-0.5,0.5-0.5h2c0.276,0,0.5,0.224,0.5,0.5 S17.776,65,17.5,65z"/></g><g><path fill="#fdfcef" d="M23.498,50.505c0,0,1.567,0,3.5,0s3.5-1.567,3.5-3.5c0-1.781-1.335-3.234-3.055-3.455 c0.028-0.179,0.055-0.358,0.055-0.545c0-1.933-1.567-3.5-3.5-3.5c-1.032,0-1.95,0.455-2.59,1.165 c-0.384-1.808-1.987-3.165-3.91-3.165c-2.209,0-4,1.791-4,4c0,0.191,0.03,0.374,0.056,0.558 c-0.428-0.344-0.964-0.558-1.556-0.558c-1.228,0-2.245,0.887-2.455,2.055c-0.179-0.028-0.358-0.055-0.545-0.055 c-1.933,0-3.5,1.567-3.5,3.5s1.567,3.5,3.5,3.5s7.5,0,7.5,0v0.5h7V50.505z"/><path fill="#472b29" d="M25.248,46.005c-0.138,0-0.25-0.112-0.25-0.25c0-1.223,0.995-2.218,2.218-2.218 c0.034,0.009,0.737-0.001,1.244,0.136c0.133,0.036,0.212,0.173,0.176,0.306c-0.036,0.134-0.173,0.213-0.306,0.176 c-0.444-0.12-1.1-0.12-1.113-0.118c-0.948,0-1.719,0.771-1.719,1.718C25.498,45.893,25.386,46.005,25.248,46.005z"/><circle cx="18.498" cy="50.505" r=".5" fill="#472b29"/><path fill="#472b29" d="M26.998,51.005h-3.5c-0.276,0-0.5-0.224-0.5-0.5s0.224-0.5,0.5-0.5h3.5c1.654,0,3-1.346,3-3 c0-1.496-1.125-2.768-2.618-2.959c-0.134-0.018-0.255-0.088-0.336-0.196s-0.115-0.244-0.094-0.377 c0.023-0.154,0.048-0.308,0.048-0.468c0-1.654-1.346-3-3-3c-0.85,0-1.638,0.355-2.219,1c-0.125,0.139-0.321,0.198-0.5,0.148 c-0.182-0.049-0.321-0.195-0.36-0.379c-0.341-1.604-1.78-2.769-3.421-2.769c-1.93,0-3.5,1.57-3.5,3.5 c0,0.143,0.021,0.28,0.041,0.418c0.029,0.203-0.063,0.438-0.242,0.54s-0.396,0.118-0.556-0.01 c-0.365-0.293-0.794-0.448-1.243-0.448c-0.966,0-1.792,0.691-1.963,1.644c-0.048,0.267-0.296,0.446-0.569,0.405 c-0.154-0.024-0.308-0.049-0.468-0.049c-1.654,0-3,1.346-3,3s1.346,3,3,3h7.5c0.276,0,0.5,0.224,0.5,0.5s-0.224,0.5-0.5,0.5h-7.5 c-2.206,0-4-1.794-4-4s1.794-4,4-4c0.059,0,0.116,0.002,0.174,0.006c0.414-1.186,1.537-2.006,2.826-2.006 c0.349,0,0.689,0.061,1.011,0.18c0.165-2.333,2.115-4.18,4.489-4.18c1.831,0,3.466,1.127,4.153,2.774 c0.68-0.498,1.502-0.774,2.347-0.774c2.206,0,4,1.794,4,4c0,0.048-0.001,0.095-0.004,0.142c1.743,0.448,3.004,2.027,3.004,3.858 C30.998,49.211,29.204,51.005,26.998,51.005z"/><path fill="#472b29" d="M21.498,50.005c-0.159,0-0.841,0-1,0c-0.276,0-0.5,0.224-0.5,0.5s0.224,0.5,0.5,0.5 c0.159,0,0.841,0,1,0c0.276,0,0.5-0.224,0.5-0.5S21.774,50.005,21.498,50.005z"/></g><g><path fill="#ffd683" d="M36.027,44.934c-1.163-1.342-4.026-5.056-4.341-9.409c-0.009-0.127,0.027-0.236,0.109-0.324 c0.096-0.103,0.24-0.164,0.388-0.164c0.109,0,0.213,0.033,0.308,0.099c2.645,1.82,7.325,2.908,9.587,3.352L36.027,44.934z"/><path fill="#472b29" d="M32.428,35.931c2.338,1.475,5.893,2.45,8.287,2.984l-4.658,4.965 C34.835,42.353,32.826,39.378,32.428,35.931 M32.184,34.337c-0.648,0-1.248,0.51-1.195,1.238 c0.418,5.79,5.032,10.389,5.032,10.389l7.449-7.939c0,0-7.171-1.12-10.582-3.468C32.666,34.406,32.422,34.337,32.184,34.337 L32.184,34.337z"/><path fill="#ffd683" d="M63.377,38.486c2.262-0.443,6.942-1.531,9.587-3.353c0.095-0.064,0.198-0.098,0.308-0.098 c0.147,0,0.292,0.062,0.388,0.164c0.082,0.088,0.118,0.197,0.109,0.325c-0.314,4.353-3.178,8.066-4.341,9.408L63.377,38.486z"/><path fill="#472b29" d="M73.027,35.931c-0.397,3.432-2.41,6.414-3.631,7.946l-4.656-4.962 C67.134,38.381,70.689,37.405,73.027,35.931 M73.271,34.337c-0.238,0-0.483,0.069-0.704,0.221 c-3.412,2.348-10.582,3.468-10.582,3.468l7.449,7.939c0,0,4.615-4.599,5.032-10.389C74.519,34.846,73.919,34.337,73.271,34.337 L73.271,34.337z"/><path fill="#685446" d="M32.148,72.3c-0.53-2.237-2.361-11.345,1.058-18.097c0.035-0.068,0.058-0.142,0.069-0.217 c1.009-7.037,3.176-10.722,4.235-12.163l14.517,26.998c0.121,0.227,0.357,0.368,0.614,0.369c0,0,0.001,0,0.002,0 c0.256,0,0.491-0.14,0.614-0.364l14.597-26.721c1.331,1.047,4.49,4.324,4.632,11.907c0.002,0.107,0.029,0.213,0.078,0.308 c3.407,6.621,2.372,15.643,2.026,17.979H32.148z"/><path fill="#472b29" d="M37.447,43.182L51.41,69.154c0.243,0.452,0.715,0.735,1.228,0.737c0.002,0,0.003,0,0.005,0 c0.512,0,0.983-0.279,1.229-0.729l14.175-25.948c1.398,1.386,3.623,4.564,3.74,10.812c0.004,0.214,0.057,0.424,0.155,0.615 c3.07,5.965,2.417,14.012,2.038,16.959H55.068H50.18H32.707c-0.614-2.835-1.965-10.983,1.124-17.081 c0.069-0.136,0.115-0.283,0.137-0.434C34.783,48.402,36.36,44.973,37.447,43.182 M37.637,40.58c0,0-3.637,3.42-5.055,13.306 C28.501,61.943,31.603,73,31.603,73H50.18h4.888h20.118c0,0,2.081-11.07-2-19C73,44,67.611,41.091,67.611,41.091L52.643,68.491 L37.637,40.58L37.637,40.58z"/><path fill="#ffd683" d="M53.518,73.3c-6.74,0-12.568-3.305-15.591-8.841c-2.254-4.131-2.364-8.705-0.285-11.937 c0.072-0.113,0.111-0.245,0.111-0.379v-5.668c0-8.51,7.072-15.434,15.765-15.434s15.765,6.924,15.765,15.434v5.668 c0,0.134,0.038,0.265,0.11,0.377c2.09,3.271,1.978,7.878-0.292,12.021C66.096,70.026,60.271,73.3,53.518,73.3z"/><path fill="#472b29" d="M53.517,31.741c8.307,0,15.065,6.61,15.065,14.735v5.668c0,0.267,0.076,0.529,0.22,0.754 c1.952,3.056,1.831,7.389-0.316,11.308c-2.88,5.257-8.476,8.395-14.969,8.395c-6.48,0-12.079-3.169-14.976-8.477 c-2.132-3.906-2.251-8.206-0.312-11.222c0.145-0.226,0.222-0.489,0.222-0.757v-5.668C38.452,38.351,45.21,31.741,53.517,31.741 M53.517,30.341c-9.093,0-16.465,7.224-16.465,16.135v5.668C32,60,39.277,74,53.517,74C67.91,74,75,60,69.982,52.144v-5.668 C69.982,37.565,62.61,30.341,53.517,30.341L53.517,30.341z"/><path fill="#685446" d="M37.976,49.543c-0.733-3.724-0.104-9.029,2.484-13.259c1.895-3.098,5.623-6.868,12.619-7.243 c0.389-0.021,0.77-0.031,1.141-0.031c9.825,0,13.557,7.282,14.676,12.507c-1.57-2.457-3.306-4.1-5.41-5.163 c-0.101-0.051-0.208-0.075-0.314-0.075c-0.244,0-0.48,0.129-0.609,0.354c-0.017,0.029-1.559,2.68-5.13,5.115 c0.153-1.672,0.223-3.319-0.329-4.506c-0.115-0.249-0.364-0.405-0.635-0.405c-0.026,0-0.053,0.002-0.079,0.005 c-0.3,0.034-0.544,0.256-0.605,0.551c-0.593,2.805-3.048,5.743-4.696,6.677c0.522-3.877-1.561-5.547-1.658-5.622 C49.305,38.351,49.153,38.3,49,38.3c-0.073,0-0.146,0.012-0.218,0.035C48.44,38.446,40.978,40.979,37.976,49.543z"/><path fill="#472b29" d="M54.218,29.709c7.287,0,11.059,4.211,12.878,8.433c-0.936-0.933-2.025-1.771-3.294-2.413 c-0.201-0.102-0.415-0.15-0.627-0.15c-0.488,0-0.961,0.256-1.22,0.705c-0.014,0.024-1.149,1.961-3.723,4.005 c0.042-1.226-0.051-2.388-0.494-3.342c-0.231-0.498-0.729-0.81-1.269-0.81c-0.053,0-0.106,0.003-0.159,0.009 c-0.599,0.068-1.087,0.512-1.212,1.102c-0.439,2.076-1.956,4.138-3.234,5.346c-0.1-3.178-1.91-4.626-2.007-4.701 C49.609,37.701,49.307,37.6,49,37.6c-0.146,0-0.292,0.023-0.435,0.069c-0.321,0.105-6.644,2.25-10.18,9.145 c-0.071-3.202,0.731-6.992,2.672-10.166c1.807-2.954,5.366-6.55,12.059-6.909C53.491,29.719,53.86,29.709,54.218,29.709 M54.218,28.309c-0.382,0-0.776,0.011-1.176,0.032C37.815,29.158,35.141,45.581,38,52c2.287-10.154,11-13,11-13 s2.25,1.745,1.182,6.072c1.987,0,5.568-4.136,6.286-7.535c0.622,1.34,0.319,3.559,0.128,5.569 c4.66-2.745,6.574-6.128,6.574-6.128C66.325,38.573,68.363,41.54,70,45C70,40.144,67.083,28.309,54.218,28.309L54.218,28.309z"/><path fill="#472b29" d="M45.479,46c-1.805,0-3.276,1.528-3.479,3.49l3.088,1.785l-2.819,1.629 c0.078,0.333,0.21,0.81,0.314,1.096c1.267-0.412,3.41-0.995,5.756-0.152C48.753,52.79,49,51.462,49,49.946 C49,47.767,47.424,46,45.479,46z"/><path fill="#472b29" d="M61.479,46c-1.805,0-3.276,1.528-3.479,3.49l3.088,1.785l-2.819,1.629 c0.078,0.333,0.21,0.81,0.314,1.096c1.267-0.412,3.41-0.995,5.756-0.152C64.753,52.79,65,51.462,65,49.946 C65,47.767,63.424,46,61.479,46z"/><path fill="#472b29" d="M40.718,45.266c-0.123,0-0.245-0.045-0.342-0.136c-0.202-0.188-0.212-0.505-0.022-0.706 c1.559-1.661,4.819-2.659,7.372-1.37c0.246,0.124,0.345,0.425,0.221,0.672c-0.125,0.246-0.428,0.343-0.672,0.221 c-2.071-1.045-4.873-0.243-6.192,1.161C40.984,45.213,40.851,45.266,40.718,45.266z"/><path fill="#472b29" d="M65.5,45c-0.154,0-0.308-0.071-0.405-0.207c-1.017-1.405-3.476-1.794-5.371-0.846 c-0.248,0.125-0.547,0.023-0.671-0.224c-0.123-0.247-0.023-0.547,0.224-0.671c2.345-1.172,5.319-0.654,6.629,1.154 c0.162,0.224,0.111,0.536-0.112,0.698C65.704,44.969,65.602,45,65.5,45z"/><path fill="#685446" d="M49,63.786L51.7,62l1.8,0.893L55.3,62l2.7,1.786C58,63.786,53.5,69.143,49,63.786z"/><path fill="#472b29" d="M53.333,66.667c-1.702,0-3.289-0.861-4.716-2.56c-0.092-0.108-0.133-0.252-0.112-0.393 c0.021-0.142,0.101-0.268,0.22-0.346l2.7-1.786c0.147-0.098,0.339-0.109,0.497-0.031l1.578,0.782l1.578-0.782 c0.157-0.078,0.349-0.066,0.497,0.031l2.7,1.786c0.119,0.078,0.199,0.204,0.22,0.346c0.021,0.141-0.021,0.284-0.112,0.393 C58.295,64.212,56.2,66.667,53.333,66.667z M49.758,63.885c1.12,1.181,2.318,1.78,3.569,1.782c0.002,0,0.004,0,0.006,0 c1.747,0,3.214-1.16,3.889-1.797l-1.958-1.294l-1.542,0.765c-0.139,0.068-0.305,0.068-0.443,0l-1.542-0.765L49.758,63.885z"/><path fill="#472b29" d="M45.529,51.184c-0.037,0-0.074-0.008-0.109-0.025l-5.029-2.434 c-0.124-0.06-0.176-0.209-0.115-0.334c0.06-0.124,0.21-0.177,0.334-0.115l5.029,2.434c0.124,0.06,0.176,0.209,0.115,0.334 C45.711,51.132,45.622,51.184,45.529,51.184z"/><path fill="#472b29" d="M61.5,51.184c-0.093,0-0.182-0.052-0.225-0.141c-0.061-0.125-0.009-0.274,0.115-0.334l5.029-2.434 c0.123-0.061,0.274-0.009,0.334,0.115c0.061,0.125,0.009,0.274-0.115,0.334l-5.029,2.434C61.574,51.176,61.537,51.184,61.5,51.184 z"/><path fill="#472b29" d="M52.002,56.499c-0.165,0-0.327-0.082-0.422-0.23c-0.148-0.232-0.082-0.539,0.148-0.688 c0.07-0.046,1.729-1.09,3.514-0.105c0.241,0.134,0.329,0.438,0.195,0.68c-0.133,0.242-0.438,0.33-0.68,0.195 c-1.247-0.691-2.438,0.041-2.489,0.072C52.186,56.474,52.094,56.499,52.002,56.499z"/><g><circle cx="40" cy="57" r="1" fill="#472b29"/></g><g><path fill="#ffd683" d="M52.735,23.013c-9.38,0.453-16.861,3.378-16.709,6.535c0.221,4.572,7.908,5.92,17.288,5.468 s16.902-2.534,16.681-7.106C69.843,24.752,62.116,22.56,52.735,23.013z M53.149,31.586c-7.352,0.355-13.374-0.637-13.45-2.215 s5.822-3.145,13.174-3.5c7.352-0.355,13.374,0.637,13.45,2.215C66.399,29.664,60.501,31.231,53.149,31.586z"/><path fill="#472b29" d="M49.978,35.599c-3.58,0-6.555-0.317-8.874-0.95c-3.585-0.979-5.461-2.687-5.576-5.076 c-0.085-1.759,1.725-3.453,5.097-4.772c3.205-1.253,7.497-2.065,12.087-2.286l0.024,0.499l-0.024-0.499 c4.595-0.221,8.94,0.173,12.251,1.112c3.483,0.988,5.448,2.501,5.532,4.259c0.116,2.391-1.587,4.271-5.062,5.59 c-2.917,1.107-6.986,1.793-12.094,2.039C52.166,35.57,51.044,35.599,49.978,35.599z M55.186,23.453 c-0.797,0-1.607,0.02-2.426,0.059c-4.484,0.217-8.665,1.005-11.771,2.22c-2.897,1.134-4.524,2.516-4.463,3.792 c0.093,1.909,1.722,3.309,4.842,4.16c2.867,0.782,6.993,1.068,11.923,0.832c4.933-0.238,9.009-0.921,11.787-1.977 c3.024-1.147,4.511-2.697,4.419-4.605c-0.062-1.277-1.813-2.496-4.807-3.345C62.066,23.845,58.756,23.453,55.186,23.453z M50.204,32.158c-2.466,0-4.74-0.157-6.59-0.462c-2.92-0.481-4.363-1.234-4.414-2.303c-0.129-2.653,8.872-3.792,13.648-4.022 c4.778-0.229,13.847,0.036,13.974,2.69c0.052,1.068-1.312,1.957-4.172,2.717c-2.521,0.67-5.888,1.134-9.478,1.307l0,0 C52.163,32.134,51.169,32.158,50.204,32.158z M55.835,26.297c-0.921,0-1.9,0.022-2.938,0.072 c-8.29,0.401-12.737,2.177-12.699,2.977c0.011,0.218,0.674,0.885,3.578,1.363c2.506,0.414,5.829,0.546,9.348,0.378l0,0 c3.521-0.17,6.813-0.623,9.27-1.275c2.845-0.756,3.44-1.484,3.431-1.701C65.79,27.41,62.267,26.297,55.835,26.297z"/></g><g><path fill="#472b29" d="M55.319,71.059c-0.133,0-0.243-0.104-0.25-0.238c-0.007-0.138,0.1-0.255,0.238-0.262 c2.688-0.131,5.262-1.166,7.439-2.993c0.105-0.089,0.263-0.076,0.353,0.03c0.089,0.106,0.075,0.264-0.03,0.353 c-2.264,1.898-4.938,2.974-7.738,3.11C55.327,71.059,55.323,71.059,55.319,71.059z"/></g><g><path fill="#472b29" d="M64.629,66.304c-0.058,0-0.116-0.02-0.163-0.061c-0.104-0.09-0.116-0.248-0.026-0.353 c1.364-1.584,2.396-3.424,2.98-5.322c0.041-0.132,0.181-0.201,0.312-0.166c0.133,0.041,0.206,0.181,0.166,0.312 c-0.606,1.965-1.671,3.867-3.08,5.502C64.769,66.274,64.699,66.304,64.629,66.304z"/></g><g><path fill="#472b29" d="M68.14,58.515c-0.007,0-0.015,0-0.022-0.001c-0.138-0.013-0.239-0.134-0.227-0.271 c0.091-1.019,0.012-1.941-0.236-2.742c-0.04-0.132,0.033-0.272,0.165-0.313c0.139-0.034,0.272,0.033,0.313,0.165 c0.267,0.864,0.353,1.852,0.256,2.936C68.377,58.417,68.268,58.515,68.14,58.515z"/></g><g><path fill="#472b29" d="M37.532,72.526c-0.063,0-0.126-0.023-0.175-0.071c-3.527-3.463-4.541-8.966-4.582-9.198 c-0.017-0.094,0.021-0.189,0.099-0.246c0.078-0.056,0.179-0.063,0.265-0.019c0.036,0.019,0.733,0.39,1.44,0.869 c-0.449-2.328-1.128-4.377-1.136-4.399c-0.044-0.131,0.027-0.272,0.158-0.316c0.131-0.042,0.272,0.027,0.316,0.158 c0.008,0.024,0.819,2.474,1.265,5.08c0.018,0.102-0.029,0.203-0.117,0.256s-0.199,0.047-0.281-0.016 c-0.465-0.357-1.017-0.697-1.401-0.922c0.348,1.472,1.538,5.66,4.324,8.396c0.099,0.097,0.101,0.255,0.004,0.354 C37.662,72.501,37.597,72.526,37.532,72.526z"/></g></g><g><path fill="#fdfcef" d="M73.127,83.502c0,0-3.64,0-6.125,0s-4.5-2.015-4.5-4.5c0-2.333,1.782-4.229,4.055-4.455 c-0.022-0.181-0.055-0.358-0.055-0.545c0-2.485,2.015-4.5,4.5-4.5c1.438,0,2.703,0.686,3.527,1.736 c0.14-2.636,2.302-4.736,4.973-4.736c2.761,0,5,2.239,5,5c0,0.446-0.077,0.87-0.187,1.282c0.642-0.777,1.6-1.282,2.687-1.282 c1.781,0,3.234,1.335,3.455,3.055c0.181-0.022,0.358-0.055,0.545-0.055c2.485,0,4.5,2.015,4.5,4.5s-2.015,4.5-4.5,4.5 s-9.5,0-9.5,0h-5.375v0.5h-3V83.502z"/><path fill="#472b29" d="M79.502,66.002c3.033,0,5.5,2.467,5.5,5.5c0,0.016,0,0.031,0,0.047 c0.602-0.355,1.29-0.547,2-0.547c1.831,0,3.411,1.261,3.858,3.005c0.047-0.003,0.094-0.005,0.142-0.005c2.757,0,5,2.243,5,5 c0,2.757-2.243,5-5,5H76.127c-0.276,0-0.5-0.224-0.5-0.5s0.224-0.5,0.5-0.5h14.875c2.206,0,4-1.794,4-4s-1.794-4-4-4 c-0.117,0-0.23,0.017-0.343,0.032l-0.141,0.019c-0.021,0.003-0.041,0.004-0.062,0.004c-0.246,0-0.462-0.185-0.495-0.437 c-0.191-1.493-1.463-2.618-2.959-2.618c-0.885,0-1.723,0.401-2.301,1.1c-0.098,0.118-0.241,0.182-0.386,0.182 c-0.078,0-0.156-0.018-0.228-0.056c-0.209-0.107-0.314-0.346-0.254-0.573c0.115-0.435,0.169-0.801,0.169-1.153 c0-2.481-2.019-4.5-4.5-4.5c-2.381,0-4.347,1.872-4.474,4.263c-0.011,0.208-0.15,0.387-0.349,0.45 c-0.05,0.016-0.101,0.024-0.152,0.024c-0.15,0-0.296-0.069-0.392-0.192c-0.771-0.982-1.912-1.545-3.133-1.545 c-2.206,0-4,1.794-4,4c0,0.117,0.017,0.23,0.032,0.343l0.019,0.141c0.016,0.134-0.022,0.268-0.106,0.373 c-0.084,0.105-0.207,0.172-0.34,0.185c-2.056,0.205-3.605,1.907-3.605,3.958c0,2.206,1.794,4,4,4h6.125 c0.276,0,0.5,0.224,0.5,0.5s-0.224,0.5-0.5,0.5h-6.125c-2.757,0-5-2.243-5-5c0-2.397,1.689-4.413,4.003-4.877 c-0.002-0.041-0.003-0.082-0.003-0.123c0-2.757,2.243-5,5-5c1.176,0,2.293,0.416,3.183,1.164 C74.783,67.762,76.947,66.002,79.502,66.002L79.502,66.002z"/><path fill="#472b29" d="M81.002,73.002c1.403,0,2.609,0.999,2.913,2.341c0.367-0.222,0.786-0.341,1.212-0.341 c1.202,0,2.198,0.897,2.353,2.068c0.203-0.046,0.396-0.068,0.585-0.068c1.529,0,2.811,1.2,2.918,2.732 c0.009,0.138-0.095,0.258-0.232,0.268c-0.006,0-0.012,0-0.018,0c-0.13,0-0.24-0.101-0.249-0.232 c-0.089-1.271-1.151-2.268-2.419-2.268c-0.229,0-0.47,0.042-0.738,0.127c-0.022,0.007-0.045,0.01-0.067,0.01 c-0.055,0-0.11-0.02-0.156-0.054c-0.064-0.046-0.102-0.128-0.102-0.208c0-1.034-0.841-1.875-1.875-1.875 c-0.447,0-0.885,0.168-1.231,0.473c-0.047,0.041-0.106,0.063-0.165,0.063c-0.032,0-0.063-0.006-0.093-0.019 c-0.088-0.035-0.148-0.117-0.155-0.212c-0.104-1.293-1.193-2.305-2.481-2.305c-0.208,0-0.425,0.034-0.682,0.107 c-0.023,0.007-0.047,0.01-0.07,0.01c-0.109,0-0.207-0.073-0.239-0.182c-0.038-0.133,0.039-0.271,0.172-0.309 C80.485,73.042,80.746,73.002,81.002,73.002L81.002,73.002z"/></g></svg>