<svg xmlns="http://www.w3.org/2000/svg"  viewBox="0 0 100 100" width="100px" height="100px"><path fill="#c7ede6" d="M87.215,56.63C88.35,54.475,89,52.025,89,49.42c0-6.621-4.159-12.257-10.001-14.478 c0-0.007,0.001-0.014,0.001-0.022c0-11.598-9.402-21-21-21c-9.784,0-17.981,6.701-20.313,15.757 C36.211,29.192,34.638,28.92,33,28.92c-7.692,0-14.023,5.793-14.89,13.252C12.906,43.273,9,47.889,9,53.42 c0,6.351,5.149,11.5,11.5,11.5c0.177,0,0.352-0.012,0.526-0.022C21.022,65.073,21,65.244,21,65.42c0,11.322,9.178,20.5,20.5,20.5 c6.437,0,12.175-2.972,15.934-7.614C59.612,80.531,62.64,81.92,66,81.92c4.65,0,8.674-2.65,10.666-6.518 c1.052,0.335,2.171,0.518,3.334,0.518c6.075,0,11-4.925,11-11C91,61.609,89.53,58.647,87.215,56.63z"/><path fill="#fdfcef" d="M73.712,43.946c0,0,11.691,0,11.762,0c2.7,0,4.888-2.189,4.888-4.889 c0-2.355-1.666-4.321-3.884-4.784c0.026-0.206,0.043-0.415,0.043-0.628c0-2.796-2.267-5.063-5.063-5.063 c-1.651,0-3.113,0.794-4.037,2.017c-0.236-3.113-3.017-5.514-6.27-5.116c-2.379,0.291-4.346,2.13-4.784,4.486 c-0.14,0.756-0.126,1.489,0.014,2.177c-0.638-0.687-1.546-1.119-2.557-1.119c-1.85,0-3.361,1.441-3.48,3.261 c-0.84-0.186-1.754-0.174-2.717,0.188c-1.84,0.691-3.15,2.423-3.227,4.387c-0.109,2.789,2.12,5.085,4.885,5.085 c0.21,0,0.948,0,1.118,0h10.151"/><path fill="#472b29" d="M85.473,44.446H72.84c-0.276,0-0.5-0.224-0.5-0.5s0.224-0.5,0.5-0.5h12.633 c2.42,0,4.389-1.969,4.389-4.389c0-2.067-1.466-3.873-3.486-4.295c-0.254-0.053-0.426-0.292-0.394-0.55 c0.022-0.186,0.039-0.375,0.039-0.567c0-2.516-2.047-4.563-4.563-4.563c-1.438,0-2.765,0.663-3.638,1.818 c-0.125,0.166-0.342,0.237-0.539,0.179c-0.2-0.059-0.342-0.235-0.358-0.442c-0.104-1.377-0.778-2.671-1.85-3.549 c-1.084-0.887-2.452-1.279-3.861-1.109c-2.165,0.265-3.955,1.943-4.353,4.081c-0.124,0.667-0.12,1.335,0.013,1.986 c0.044,0.22-0.063,0.442-0.262,0.544c-0.197,0.102-0.442,0.061-0.595-0.104c-0.574-0.619-1.353-0.959-2.19-0.959 c-1.568,0-2.878,1.227-2.98,2.793c-0.01,0.146-0.082,0.28-0.199,0.367c-0.116,0.087-0.268,0.119-0.407,0.088 c-0.844-0.186-1.64-0.131-2.434,0.167c-1.669,0.626-2.836,2.209-2.903,3.938c-0.047,1.207,0.387,2.35,1.222,3.218 c0.833,0.87,1.957,1.348,3.161,1.348h11.27c0.276,0,0.5,0.224,0.5,0.5s-0.224,0.5-0.5,0.5h-11.27 c-1.479,0-2.858-0.587-3.884-1.653s-1.559-2.469-1.501-3.951c0.084-2.126,1.511-4.069,3.552-4.836c0.8-0.3,1.628-0.4,2.468-0.298 c0.377-1.823,1.996-3.182,3.904-3.182c0.685,0,1.354,0.179,1.944,0.51c-0.001-0.386,0.035-0.773,0.107-1.159 c0.476-2.562,2.619-4.573,5.214-4.891c1.688-0.206,3.321,0.267,4.616,1.328c1.004,0.823,1.716,1.951,2.038,3.193 c1.012-0.916,2.318-1.425,3.713-1.425c3.067,0,5.563,2.496,5.563,5.563c0,0.083-0.002,0.166-0.007,0.249 c2.254,0.672,3.848,2.777,3.848,5.164C90.862,42.029,88.445,44.446,85.473,44.446z"/><path fill="#fdfcef" d="M70.879,33.177c-1.808-0.119-3.365,1.13-3.476,2.789c-0.014,0.206-0.005,0.409,0.025,0.606 c-0.349-0.394-0.865-0.661-1.458-0.7c-1.085-0.071-2.022,0.645-2.158,1.62c-0.197-0.054-0.403-0.09-0.616-0.104 c-1.582-0.104-2.944,0.989-3.042,2.441"/><path fill="#472b29" d="M60.154,40.078c-0.006,0-0.011,0-0.017,0c-0.138-0.009-0.242-0.128-0.232-0.266 c0.106-1.586,1.563-2.783,3.308-2.674c0.135,0.009,0.271,0.027,0.408,0.053c0.272-0.967,1.255-1.639,2.365-1.568 c0.426,0.028,0.824,0.161,1.163,0.382c0.001-0.019,0.002-0.037,0.004-0.055c0.12-1.794,1.8-3.146,3.742-3.022 c0.138,0.009,0.242,0.128,0.232,0.266c-0.008,0.137-0.106,0.245-0.266,0.233c-1.658-0.104-3.108,1.038-3.211,2.557 c-0.012,0.186-0.004,0.372,0.023,0.551c0.017,0.11-0.041,0.217-0.141,0.265c-0.102,0.046-0.221,0.022-0.294-0.061 c-0.317-0.358-0.786-0.583-1.287-0.616c-0.959-0.064-1.774,0.555-1.893,1.405c-0.011,0.071-0.051,0.134-0.11,0.174 s-0.135,0.052-0.203,0.033c-0.189-0.051-0.38-0.084-0.567-0.096c-1.452-0.099-2.687,0.896-2.776,2.208 C60.394,39.977,60.285,40.078,60.154,40.078z"/><path fill="#fdfcef" d="M87.453,34.846c-1.699-0.801-3.664-0.234-4.389,1.267c-0.09,0.186-0.157,0.379-0.201,0.574"/><path fill="#472b29" d="M82.863,36.936c-0.019,0-0.037-0.002-0.057-0.006c-0.134-0.031-0.218-0.166-0.187-0.3 c0.05-0.216,0.123-0.427,0.219-0.625c0.783-1.622,2.9-2.243,4.721-1.384c0.125,0.059,0.179,0.208,0.12,0.333 c-0.06,0.125-0.21,0.177-0.333,0.12c-1.575-0.743-3.394-0.226-4.057,1.149c-0.08,0.165-0.142,0.34-0.184,0.521 C83.08,36.858,82.977,36.936,82.863,36.936z"/><path fill="#fff" d="M87.713,72.085h-10c-0.276,0-0.5-0.224-0.5-0.5s0.224-0.5,0.5-0.5h10c0.276,0,0.5,0.224,0.5,0.5 S87.989,72.085,87.713,72.085z"/><path fill="#fff" d="M91.713,72.085h-2c-0.276,0-0.5-0.224-0.5-0.5s0.224-0.5,0.5-0.5h2c0.276,0,0.5,0.224,0.5,0.5 S91.989,72.085,91.713,72.085z"/><path fill="#fff" d="M96.713,74.085h-10c-0.276,0-0.5-0.224-0.5-0.5s0.224-0.5,0.5-0.5h10c0.276,0,0.5,0.224,0.5,0.5 S96.99,74.085,96.713,74.085z"/><path fill="#fff" d="M84.713,74.085h-1c-0.276,0-0.5-0.224-0.5-0.5s0.224-0.5,0.5-0.5h1c0.276,0,0.5,0.224,0.5,0.5 S84.989,74.085,84.713,74.085z"/><path fill="#fff" d="M81.588,74.085h-1.875c-0.276,0-0.5-0.224-0.5-0.5s0.224-0.5,0.5-0.5h1.875 c0.276,0,0.5,0.224,0.5,0.5S81.864,74.085,81.588,74.085z"/><path fill="#fff" d="M90.713,70.085h-5c-0.276,0-0.5-0.224-0.5-0.5s0.224-0.5,0.5-0.5h5c0.276,0,0.5,0.224,0.5,0.5 S90.99,70.085,90.713,70.085z"/><path fill="#fff" d="M87.713,76.085h-2c-0.276,0-0.5-0.224-0.5-0.5s0.224-0.5,0.5-0.5h2c0.276,0,0.5,0.224,0.5,0.5 S87.989,76.085,87.713,76.085z"/><path fill="#fdfcef" d="M31.777,47.879c1.883,0,3.517,0,3.54,0c2.11,0,3.821-1.674,3.821-3.739 c0-1.802-1.302-3.305-3.035-3.66c0.02-0.158,0.034-0.317,0.034-0.48c0-2.139-1.772-3.873-3.957-3.873 c-1.29,0-2.433,0.607-3.155,1.543c-0.185-2.381-2.358-4.218-4.9-3.913c-1.859,0.223-3.397,1.629-3.739,3.431 c-0.11,0.578-0.098,1.139,0.011,1.665c-0.498-0.525-1.208-0.856-1.998-0.856c-1.446,0-2.627,1.102-2.72,2.494 c-0.657-0.142-1.371-0.133-2.123,0.143c-1.438,0.528-2.462,1.853-2.522,3.356c-0.085,2.133,1.657,3.889,3.818,3.889 c0.164,0,0.741,0,0.874,0h7.934 M25.299,47.879h0.36"/><path fill="#472b29" d="M35.316,48.379h-3.54c-0.276,0-0.5-0.224-0.5-0.5s0.224-0.5,0.5-0.5h3.54 c1.831,0,3.321-1.453,3.321-3.239c0-1.524-1.108-2.857-2.637-3.17c-0.257-0.052-0.429-0.294-0.396-0.554 c0.018-0.137,0.03-0.275,0.03-0.416c0-1.86-1.551-3.373-3.457-3.373c-1.093,0-2.099,0.491-2.76,1.348 c-0.125,0.165-0.343,0.232-0.538,0.174c-0.198-0.059-0.34-0.234-0.355-0.44c-0.079-1.019-0.565-1.943-1.37-2.603 c-0.828-0.68-1.886-0.984-2.973-0.853c-1.646,0.197-3.006,1.442-3.307,3.028c-0.094,0.494-0.091,0.988,0.009,1.471 c0.046,0.219-0.06,0.441-0.258,0.544c-0.196,0.104-0.439,0.064-0.595-0.099c-0.428-0.451-1.008-0.7-1.635-0.7 c-1.17,0-2.146,0.891-2.221,2.027c-0.01,0.145-0.082,0.279-0.198,0.366c-0.115,0.088-0.263,0.12-0.406,0.089 c-0.639-0.139-1.241-0.097-1.847,0.124c-1.262,0.464-2.144,1.632-2.193,2.906c-0.035,0.875,0.282,1.708,0.895,2.345 c0.637,0.661,1.497,1.025,2.425,1.025h9.863c0.276,0,0.043,0.224,0.043,0.5s-0.224,0.5-0.5,0.5H14.85 c-1.185,0-2.331-0.485-3.144-1.332c-0.803-0.835-1.219-1.928-1.174-3.078c0.066-1.674,1.212-3.203,2.849-3.805 c0.612-0.225,1.245-0.307,1.881-0.245c0.345-1.396,1.629-2.424,3.136-2.424c0.493,0,0.977,0.113,1.413,0.323 c0.01-0.242,0.037-0.484,0.083-0.726c0.381-2.009,2.096-3.585,4.17-3.834c1.364-0.16,2.686,0.218,3.727,1.073 c0.747,0.613,1.278,1.409,1.546,2.301c0.791-0.648,1.785-1.006,2.843-1.006c2.458,0,4.457,1.961,4.457,4.373 c0,0.034-0.001,0.068-0.002,0.103c1.765,0.555,3.004,2.188,3.004,4.038C39.638,46.477,37.699,48.379,35.316,48.379z M25.658,48.379h-0.359c-0.276,0-0.5-0.224-0.5-0.5s0.224-0.5,0.5-0.5h0.359c0.276,0,0.5,0.224,0.5,0.5 S25.935,48.379,25.658,48.379z"/><path fill="#472b29" d="M33.609,42.576c-0.018,0-0.036-0.002-0.055-0.006c-0.135-0.03-0.22-0.164-0.189-0.299 c0.038-0.167,0.095-0.329,0.17-0.479c0.604-1.223,2.273-1.673,3.721-1.006c0.126,0.058,0.181,0.207,0.122,0.332 c-0.057,0.125-0.209,0.179-0.331,0.122c-1.204-0.556-2.579-0.21-3.063,0.774c-0.058,0.115-0.102,0.238-0.13,0.367 C33.827,42.497,33.724,42.576,33.609,42.576z"/><path fill="#472b29" d="M28.45,48.379h-1.107c-0.276,0-0.5-0.224-0.5-0.5s0.224-0.5,0.5-0.5h1.107 c0.276,0,0.5,0.224,0.5,0.5S28.727,48.379,28.45,48.379z"/><path fill="#fff" d="M29.223,77h-10c-0.276,0-0.5-0.224-0.5-0.5s0.224-0.5,0.5-0.5h10c0.276,0,0.5,0.224,0.5,0.5 S29.5,77,29.223,77z M32.223,77h-1c-0.276,0-0.5-0.224-0.5-0.5s0.224-0.5,0.5-0.5h1c0.276,0,0.5,0.224,0.5,0.5S32.5,77,32.223,77z M37.214,79h-8.991c-0.276,0-0.5-0.224-0.5-0.5s0.224-0.5,0.5-0.5h8.991c0.276,0,0.5,0.224,0.5,0.5S37.49,79,37.214,79z M26.223,79h-1c-0.276,0-0.5-0.224-0.5-0.5s0.224-0.5,0.5-0.5h1c0.276,0,0.5,0.224,0.5,0.5S26.5,79,26.223,79z M23.223,79h-2 c-0.276,0-0.5-0.224-0.5-0.5s0.224-0.5,0.5-0.5h2c0.276,0,0.5,0.224,0.5,0.5S23.5,79,23.223,79z M29.223,81h-2 c-0.276,0-0.5-0.224-0.5-0.5s0.224-0.5,0.5-0.5h2c0.276,0,0.5,0.224,0.5,0.5S29.499,81,29.223,81z M32.223,72 c-0.177,0-0.823,0-1,0c-0.276,0-0.5,0.224-0.5,0.5s0.224,0.5,0.5,0.5c0.177,0,0.823,0,1,0c0.276,0,0.5-0.224,0.5-0.5 S32.499,72,32.223,72z M32.223,74c-0.177,0-4.823,0-5,0c-0.276,0-0.5,0.224-0.5,0.5s0.224,0.5,0.5,0.5c0.177,0,4.823,0,5,0 c0.276,0,0.5-0.224,0.5-0.5S32.499,74,32.223,74z M37.223,76c-0.177,0-2.823,0-3,0c-0.276,0-0.5,0.224-0.5,0.5s0.224,0.5,0.5,0.5 c0.177,0,2.823,0,3,0c0.276,0,0.5-0.224,0.5-0.5S37.499,76,37.223,76z"/><path fill="#fff" d="M24.309,80.277h-2c-0.276,0-0.5-0.224-0.5-0.5s0.224-0.5,0.5-0.5h2c0.276,0,0.5,0.224,0.5,0.5 S24.586,80.277,24.309,80.277z"/><polygon fill="#4a5397" points="72.043,59.489 71.149,65.936 74.064,60.66"/><polygon fill="#4a5397" points="66.915,50.383 67.33,64.202 68.383,65.351 69.277,53.734"/><polygon fill="#4a5397" points="63.277,57.181 59.543,65.702 58.33,70.106 61.617,67.426 61.553,69.947 65.479,61.745"/><polygon fill="#4a5397" points="41.234,65.681 42.553,69.915 43.489,66.17"/><polygon fill="#4a5397" points="35.553,62.808 38.959,69.064 38.264,60.468"/><polyline fill="#f9eaeb" points="55.968,67.66 60.234,64.574 63.851,54.66 56.277,45.128 44.872,48.319 38.617,58.149 42.574,65.426 46.273,68.052 50,70.617 55.968,67.66"/><path fill="#666aad" d="M42.992,53.713c-0.573,0.482-0.95,1.298-0.95,2.223c0,1.481,0.964,2.681,2.154,2.681 c1.19,0,2.154-1.2,2.154-2.681c0-0.137-0.008-0.272-0.024-0.404l-1.454-1.16L42.992,53.713z"/><path fill="#666aad" d="M57.529,53.713c0.573,0.482,0.95,1.298,0.95,2.223c0,1.481-0.964,2.681-2.154,2.681 s-2.154-1.2-2.154-2.681c0-0.137,0.008-0.272,0.024-0.404l1.454-1.16L57.529,53.713z"/><path fill="#472b29" d="M42.984,59.325c-0.736,0-1.341-0.161-1.817-0.375c-1.795-0.802-2.601-2.661-2.746-4.009 c-0.01-0.097,0.037-0.191,0.121-0.242c3.729-2.222,6.818-1.49,9.438,2.241c0.035,0.05,0.05,0.108,0.045,0.164 c0.032,0.1-0.002,0.213-0.093,0.278C45.881,58.858,44.24,59.325,42.984,59.325z M38.938,55.047c0.174,1.199,0.9,2.762,2.433,3.447 c1.146,0.513,3.132,0.679,6.105-1.4C45.059,53.735,42.341,53.083,38.938,55.047z"/><path fill="#472b29" d="M44.197,58.867c-1.326,0-2.404-1.315-2.404-2.931c0-0.965,0.389-1.868,1.038-2.414 c0.105-0.09,0.262-0.075,0.353,0.031c0.089,0.105,0.075,0.263-0.03,0.352c-0.539,0.452-0.86,1.211-0.86,2.031 c0,1.34,0.854,2.431,1.904,2.431s1.903-1.091,1.903-2.431c0-0.127-0.007-0.252-0.021-0.375c-0.017-0.137,0.081-0.261,0.219-0.277 c0.136-0.021,0.262,0.081,0.277,0.219c0.017,0.141,0.025,0.286,0.025,0.433C46.601,57.552,45.522,58.867,44.197,58.867z"/><path fill="#4a5397" d="M54.553,28.362l-5.989-1.277l-4.5,0.415l-4,2.138l-4.255,3.383l-5.064,7.34l-3.957,6.468 l-4.043,3.915l-8.617,5.617l5.511-1.021c4.138-1.194,8.065-3.217,11.83-5.872l-3.106,4.936L25,59.255l-6.34,4.723 c7.294-1.858,15.17-5.516,19.404-11.532l-5.915,12.085l12.681-11.66l3.723-3.638l0.17,10.319c1.734-5.113,4.315-9.8,7.574-13.489 c4.473,2.912,7.622,9.706,10.266,17.229l0.096-15.101c2.37,5.699,4.42,9.498,7.66,12.574l10.319,7.745L72.66,52.33l-0.851-4.309 c2.953,3.762,5.922,7.071,8.926,9.447l-7.138-11.574l-2.979-7.83c-1.885-3.462-3.936-6.83-6.936-8.192l-1.915-0.83L54.553,28.362z"/><path fill="#666aad" d="M68.657,34.597c-1.844,4.363-9.522,7.637-18.721,7.637c-7.534,0-14.033-2.2-17.159-5.391 l-2.368,3.524c3.519,3.675,10.94,6.208,19.527,6.208c9.785,0,18.054-3.289,20.763-7.809L68.657,34.597z"/><path fill="#472b29" d="M45.945,69.003c-0.148,0-0.299-0.047-0.426-0.146l-3.344-2.576 c-0.892-0.688-1.601-1.595-2.051-2.625l-1.845-3.979c-0.163-0.351-0.011-0.767,0.34-0.93c0.352-0.162,0.768-0.01,0.93,0.341 l1.852,3.994c0.362,0.829,0.924,1.547,1.629,2.091l3.343,2.575c0.307,0.236,0.363,0.676,0.128,0.982 C46.363,68.909,46.155,69.003,45.945,69.003z"/><path fill="#472b29" d="M55.818,68.509c-0.234,0-0.463-0.117-0.596-0.331c-0.204-0.328-0.104-0.76,0.226-0.964l2.799-1.74 c1.018-0.633,1.799-1.604,2.198-2.735l2.28-6.776c0.122-0.367,0.52-0.563,0.887-0.44c0.366,0.124,0.563,0.521,0.439,0.887 l-2.283,6.787c-0.509,1.439-1.495,2.667-2.783,3.468l-2.799,1.74C56.072,68.475,55.944,68.509,55.818,68.509z"/><path fill="#472b29" d="M25.106,73.296c-0.154,0-0.31-0.051-0.438-0.155c-0.293-0.235-0.348-0.659-0.125-0.961 c1.12-1.52,2.215-2.961,3.273-4.355c3.498-4.606,6.657-8.767,8.992-13.554c-5.667,6.877-14.295,10.789-24.933,11.173 c-0.009,0-0.018,0-0.025,0c-0.368,0-0.675-0.286-0.698-0.655c-0.024-0.378,0.257-0.707,0.634-0.742 c9.947-0.917,14.066-6.935,16.903-11.859c-5.49,3.742-10.986,5.522-16.399,5.298c-0.35-0.014-0.636-0.286-0.668-0.635 s0.199-0.668,0.54-0.747c8.29-1.907,12.715-8.697,16.995-15.263c4.92-7.549,9.985-15.352,20.9-14.456 c2.424,0.2,5.313,1.506,5.435,1.562c0.352,0.161,0.507,0.575,0.347,0.927c-0.16,0.351-0.576,0.506-0.927,0.347 c-0.027-0.013-2.792-1.261-4.97-1.44c-10.07-0.831-14.7,6.288-19.612,13.825c-3.551,5.447-7.198,11.043-13.055,14.099 c4.372-0.853,8.809-3.065,13.244-6.614c0.265-0.212,0.644-0.203,0.898,0.02s0.313,0.596,0.14,0.887 c-0.313,0.52-0.633,1.087-0.972,1.688c-1.938,3.431-4.55,8.052-9.62,10.999c8.307-2.301,14.662-7.396,18.321-14.844 c0.159-0.326,0.54-0.475,0.88-0.345c0.338,0.13,0.521,0.498,0.421,0.846c-1.754,6.121-4.707,10.904-8.249,15.779 c1.954-1.857,3.893-3.613,5.802-5.344l0.092-0.083c0.285-0.26,0.729-0.239,0.988,0.048c0.26,0.287,0.238,0.729-0.049,0.989 l-0.091,0.083c-4.39,3.978-8.93,8.091-13.448,13.243C25.495,73.215,25.301,73.296,25.106,73.296z"/><path fill="#472b29" d="M49.256,62.245c-0.22,0-0.417-0.145-0.48-0.36c-1.203-4.129-1.464-7.464-0.796-11.175 c-1.724,2.099-4.401,4.507-7.369,7.176l-1.753,1.581c-0.203,0.185-0.521,0.17-0.706-0.035c-0.186-0.205-0.17-0.521,0.034-0.707 l1.756-1.583c4.064-3.655,7.574-6.813,8.69-9.205c0.11-0.235,0.381-0.348,0.627-0.257c0.244,0.09,0.378,0.353,0.308,0.603 c-1.04,3.727-1.234,6.754-0.568,10.289c0.7-4.353,2.957-8.345,7.292-13.101c0.18-0.198,0.487-0.218,0.692-0.044 c2.764,2.343,5.155,5.909,7.107,10.599c0.105,0.255-0.015,0.547-0.27,0.653c-0.256,0.106-0.547-0.013-0.654-0.27 c-1.803-4.332-3.977-7.66-6.466-9.901c-4.938,5.51-6.956,9.952-6.944,15.235c0.001,0.249-0.183,0.46-0.429,0.496 C49.303,62.243,49.279,62.245,49.256,62.245z"/><path fill="#472b29" d="M71.639,74.168c-0.13,0-0.261-0.036-0.377-0.11c-2.727-1.743-4.304-6.178-6.131-11.314 c-0.711-1.997-1.445-4.061-2.293-6.098c-0.148-0.357,0.021-0.767,0.378-0.916c0.355-0.146,0.767,0.02,0.915,0.377 c0.857,2.061,1.595,4.132,2.308,6.137c-0.816-4.333-1.036-9.241-0.604-14.452c0.027-0.331,0.283-0.597,0.613-0.637 c0.34-0.038,0.643,0.158,0.748,0.473c2.979,8.894,7.977,14.936,15.916,19.068c-5.198-4.741-9.507-10.942-13.09-18.812 c-0.144-0.315-0.035-0.688,0.255-0.877c0.289-0.188,0.676-0.137,0.905,0.123c0.701,0.79,1.387,1.573,2.058,2.34 c2.308,2.636,4.468,5.105,6.563,7.041c-3.189-3.771-5.372-8.519-7.385-12.897c-4.116-8.953-7.674-16.681-17.79-13.982 c-0.375,0.098-0.758-0.123-0.857-0.496c-0.1-0.374,0.123-0.757,0.496-0.857c11.267-3.002,15.226,5.62,19.423,14.75 c3.237,7.041,6.585,14.321,13.479,17.548c0.309,0.145,0.469,0.491,0.378,0.819c-0.09,0.329-0.392,0.543-0.744,0.511 c-4.483-0.445-8.56-4.646-13.115-9.807c3.963,7.26,8.717,12.796,14.439,16.836c0.288,0.203,0.38,0.589,0.215,0.9 c-0.165,0.313-0.534,0.451-0.866,0.327c-10.147-3.839-16.563-9.757-20.433-18.966c-0.273,9.093,1.558,16.937,5.16,21.855 c0.199,0.272,0.177,0.647-0.054,0.893C72.013,74.093,71.826,74.168,71.639,74.168z"/><path fill="#472b29" d="M57.473,59.325c-1.256,0-2.896-0.467-4.948-1.941c-0.091-0.065-0.125-0.178-0.093-0.278 c-0.005-0.056,0.01-0.114,0.045-0.164c2.62-3.73,5.71-4.463,9.438-2.241c0.084,0.05,0.131,0.145,0.121,0.242 c-0.146,1.348-0.951,3.207-2.745,4.009C58.814,59.164,58.21,59.325,57.473,59.325z M52.98,57.094 c2.975,2.079,4.958,1.915,6.106,1.4c1.532-0.685,2.258-2.248,2.432-3.447C58.119,53.082,55.399,53.734,52.98,57.094z"/><g><path fill="#472b29" d="M56.261,58.867c-1.326,0-2.404-1.315-2.404-2.931c0-0.148,0.009-0.293,0.026-0.435 c0.017-0.137,0.129-0.242,0.279-0.217c0.137,0.017,0.234,0.142,0.217,0.279c-0.016,0.122-0.022,0.246-0.022,0.373 c0,1.34,0.854,2.431,1.904,2.431s1.904-1.091,1.904-2.431c0-0.753-0.269-1.453-0.736-1.918c-0.099-0.097-0.099-0.255-0.002-0.354 c0.097-0.098,0.257-0.099,0.354-0.001c0.563,0.559,0.885,1.387,0.885,2.272C58.665,57.552,57.587,58.867,56.261,58.867z"/></g><g><path fill="#472b29" d="M50.724,66.356c-1.637,0-3.132-0.471-3.809-1.2c-0.094-0.101-0.088-0.259,0.014-0.353 c0.103-0.095,0.259-0.088,0.354,0.013c0.586,0.632,1.938,1.04,3.441,1.04c1.503,0,2.894-0.426,3.46-1.06 c0.094-0.104,0.252-0.11,0.354-0.02c0.103,0.092,0.111,0.25,0.02,0.353C53.891,65.875,52.386,66.356,50.724,66.356z"/></g><g><path fill="#472b29" d="M60.947,71.638c-0.057,0-0.114-0.01-0.17-0.03c-0.227-0.082-0.362-0.313-0.323-0.551l0.112-0.682 c0.42-2.524,1.293-7.776,0.749-8.695c-0.142-0.238-0.063-0.544,0.175-0.685c0.237-0.14,0.545-0.063,0.685,0.175 c0.567,0.957,0.266,3.771-0.283,7.281c2.026-3.735,3.046-6.417,2.898-7.67c-0.031-0.274,0.165-0.522,0.438-0.555 c0.281-0.038,0.522,0.164,0.556,0.438c0.208,1.774-1.274,5.383-4.405,10.726C61.287,71.548,61.12,71.638,60.947,71.638z"/></g><g><path fill="#472b29" d="M39.702,70.904c-0.178,0-0.348-0.095-0.438-0.259c-0.64-1.161-1.355-2.207-2.048-3.218 c-1.194-1.745-2.226-3.252-2.456-4.778c-0.041-0.273,0.146-0.528,0.42-0.569c0.261-0.035,0.528,0.147,0.568,0.42 c0.196,1.299,1.168,2.719,2.293,4.363c0.196,0.285,0.394,0.574,0.59,0.867c-0.532-2.904-0.727-5.362-0.62-7.731 c0.012-0.275,0.208-0.51,0.521-0.477c0.275,0.012,0.489,0.246,0.477,0.522c-0.133,2.995,0.23,6.155,1.18,10.248 c0.057,0.243-0.075,0.491-0.309,0.58C39.822,70.894,39.762,70.904,39.702,70.904z"/></g><g><path fill="#472b29" d="M43.011,72.202c-0.189,0-0.366-0.108-0.451-0.284c-1.491-3.111-2.416-7.185-2.313-8.895 c0.017-0.275,0.23-0.49,0.529-0.469c0.275,0.017,0.485,0.253,0.469,0.529c-0.072,1.202,0.444,3.752,1.302,6.175 c0.062-1.065,0.271-2.044,0.987-2.837c0.186-0.204,0.501-0.221,0.706-0.036s0.222,0.501,0.036,0.706 c-0.755,0.837-0.755,2.026-0.755,3.531c0,0.355,0,0.721-0.01,1.095c-0.007,0.23-0.17,0.427-0.396,0.475 C43.08,72.199,43.045,72.202,43.011,72.202z"/></g><g><path fill="#472b29" d="M57.872,71.224c-0.112,0-0.225-0.038-0.317-0.113c-0.192-0.158-0.239-0.434-0.11-0.646 c0.678-1.115,1.422-2.93,1.48-4.683c0.01-0.275,0.198-0.506,0.517-0.483c0.276,0.009,0.492,0.24,0.483,0.516 c-0.033,0.993-0.247,1.932-0.515,2.738c0.594-0.609,1.14-1.225,1.583-1.833c0.165-0.223,0.478-0.27,0.699-0.109 c0.223,0.163,0.271,0.476,0.109,0.699c-0.942,1.29-2.283,2.581-3.592,3.783C58.115,71.179,57.993,71.224,57.872,71.224z"/></g><g><path fill="#472b29" d="M69.725,69.474c-0.076,0-0.148-0.029-0.231-0.063c-0.229-0.093-0.356-0.372-0.299-0.612 c0.167-0.698,0.433-1.43,0.713-2.204c0.764-2.106,1.714-4.728,1.152-8.195c-0.045-0.272,0.141-0.529,0.413-0.574 c0.27-0.042,0.53,0.14,0.573,0.414c0.468,2.882-0.025,5.185-0.645,7.105c1.045-1.878,2.039-3.961,1.828-4.471 c-0.212-0.177-0.223-0.472-0.045-0.684c0.177-0.211,0.51-0.219,0.721-0.042c0.332,0.277,1.212,1.013-2.362,6.94 C70.342,69.08,70.003,69.474,69.725,69.474z"/></g><g><path fill="#472b29" d="M68.235,66.819c-0.018,0-0.035-0.001-0.053-0.003c-0.274-0.028-0.475-0.274-0.445-0.549 l1.213-11.639c0.028-0.275,0.279-0.474,0.549-0.445c0.274,0.028,0.475,0.274,0.445,0.549l-1.213,11.639 C68.705,66.628,68.488,66.819,68.235,66.819z"/></g><g><path fill="#472b29" d="M56.245,56.377c-0.138,0-0.25-0.112-0.25-0.25v-0.161c0-0.138,0.112-0.25,0.25-0.25 s0.25,0.112,0.25,0.25v0.161C56.495,56.266,56.383,56.377,56.245,56.377z"/></g><g><path fill="#472b29" d="M44.527,56.377c-0.138,0-0.25-0.112-0.25-0.25v-0.191c0-0.138,0.112-0.25,0.25-0.25 s0.25,0.112,0.25,0.25v0.191C44.777,56.266,44.665,56.377,44.527,56.377z"/></g><g><path fill="#472b29" d="M51.076,62.186c-0.065,0-0.131-0.026-0.18-0.077c-0.214-0.222-0.337-0.545-0.337-0.885 c0-0.333,0.117-0.65,0.322-0.871c0.096-0.101,0.253-0.107,0.354-0.013c0.102,0.094,0.107,0.252,0.014,0.353 c-0.12,0.13-0.189,0.323-0.189,0.531c0,0.212,0.071,0.409,0.196,0.539c0.096,0.1,0.093,0.258-0.006,0.354 C51.201,62.162,51.139,62.186,51.076,62.186z"/></g><g><path fill="#472b29" d="M50.062,71.661c-0.586,0-1.17-0.188-1.651-0.559l-3.113-2.398c-0.307-0.236-0.363-0.675-0.128-0.982 c0.234-0.306,0.675-0.365,0.981-0.127l3.114,2.398c0.427,0.329,1.022,0.358,1.48,0.074l4.587-2.802 c0.332-0.203,0.762-0.098,0.963,0.232c0.201,0.33,0.098,0.761-0.232,0.962l-4.583,2.8C51.046,71.528,50.554,71.661,50.062,71.661z"/></g><g><path fill="#472b29" d="M55.979,46.989c-0.083,0-0.166-0.02-0.242-0.063c-0.242-0.134-0.329-0.438-0.195-0.68 c1.261-2.271,2.455-4.685,2.656-6.955c0.024-0.276,0.282-0.481,0.542-0.454c0.275,0.024,0.479,0.267,0.454,0.542 c-0.218,2.455-1.464,4.984-2.777,7.352C56.324,46.896,56.154,46.989,55.979,46.989z"/></g><g><path fill="#472b29" d="M48.596,49.989c-0.044,0-0.088-0.006-0.133-0.018c-0.266-0.073-0.423-0.348-0.35-0.614 c0.704-2.561,1.723-3.772,2.621-4.841l0.2-0.238c0.177-0.213,0.492-0.239,0.704-0.064c0.212,0.177,0.24,0.492,0.063,0.705 L51.5,45.16c-0.873,1.039-1.776,2.112-2.422,4.462C49.017,49.844,48.815,49.989,48.596,49.989z"/></g></svg>